<svg width="24" height="24" fill="none" xmlns="http://www.w3.org/2000/svg"><path d="M2 12c0-4.714 0-7.071 1.464-8.536C4.93 2 7.286 2 12 2c4.714 0 7.071 0 8.535 1.464C22 4.93 22 7.286 22 12c0 4.714 0 7.071-1.465 8.535C19.072 22 16.714 22 12 22s-7.071 0-8.536-1.465C2 19.072 2 16.714 2 12z" fill="#999"/><path d="M2 12c0-4.714 0-7.071 1.464-8.536C4.93 2 7.286 2 12 2c4.714 0 7.071 0 8.535 1.464C22 4.93 22 7.286 22 12c0 4.714 0 7.071-1.465 8.535C19.072 22 16.714 22 12 22s-7.071 0-8.536-1.465C2 19.072 2 16.714 2 12z" fill="#EE8208"/><path d="M16.558 12.277c-.22-.428-.837-.79-1.658-.18-1.118.857-2.9.857-2.9.857s-1.783 0-2.9-.857c-.822-.61-1.44-.248-1.658.18-.391.753.047 1.121 1.04 1.73.852.527 2.017.722 2.767.798l-.625.601c-.891.85-1.751 1.67-2.338 2.242-.352.345-.352.894 0 1.218l.11.12a.937.937 0 001.282 0L12 16.745c.899.85 1.751 1.67 2.345 2.241a.937.937 0 001.282 0l.102-.12c.36-.324.36-.873 0-1.218l-2.33-2.242-.617-.609c.742-.068 1.892-.27 2.736-.79.993-.609 1.43-.977 1.04-1.73zM12 6.133c1.079 0 1.954.842 1.954 1.873 0 1.037-.875 1.872-1.954 1.872-1.08 0-1.955-.835-1.955-1.872 0-1.03.876-1.873 1.955-1.873zm0 5.678c2.189 0 3.956-1.7 3.956-3.805C15.956 5.907 14.189 4.2 12 4.2c-2.19 0-3.956 1.707-3.956 3.806 0 2.105 1.767 3.805 3.956 3.805z" fill="#fff"/></svg>