<svg width="16" height="16" fill="none" xmlns="http://www.w3.org/2000/svg"><path d="M7.506 1.12a.735.735 0 01.988 0l1.294 1.174c.142.129.33.197.522.19l1.746-.068a.735.735 0 01.756.635l.237 1.731c.026.19.126.363.278.481l1.38 1.07a.735.735 0 01.172.973l-.931 1.478a.735.735 0 00-.097.548l.37 1.707c.08.37-.134.74-.494.855l-1.664.534a.735.735 0 00-.425.357l-.815 1.546a.735.735 0 01-.928.338l-1.617-.66a.735.735 0 00-.556 0l-1.618.66a.735.735 0 01-.927-.338l-.815-1.546a.735.735 0 00-.425-.357l-1.664-.534a.735.735 0 01-.494-.854l.37-1.708a.735.735 0 00-.097-.548l-.931-1.478a.735.735 0 01.171-.972l1.381-1.07a.735.735 0 00.278-.482l.237-1.731a.735.735 0 01.756-.635l1.746.068a.737.737 0 00.522-.19l1.294-1.175z" fill="#fff"/><path d="M7.333 4.667a.667.667 0 011.334 0v2.666a.667.667 0 01-1.334 0V4.667zM7 10.333a1 1 0 112 0 1 1 0 01-2 0z" fill="#27AE60"/></svg>