<svg width="7" height="13" fill="none" xmlns="http://www.w3.org/2000/svg"><path d="M3.478 12.65l3.236-2.252a.5.5 0 01.286-.09V.023a.491.491 0 00-.472.336L5.233 4.082a.5.5 0 01-.462.336l-3.941.08a.5.5 0 00-.292.898l3.141 2.382a.5.5 0 01.177.543l-1.142 3.774a.5.5 0 00.764.555z" fill="#999"/><path d="M3.478 12.65l3.236-2.252a.5.5 0 01.286-.09V.023a.491.491 0 00-.472.336L5.233 4.082a.5.5 0 01-.462.336l-3.941.08a.5.5 0 00-.292.898l3.141 2.382a.5.5 0 01.177.543l-1.142 3.774a.5.5 0 00.764.555z" fill="#FFA300"/></svg>